# xmcd
#
# Track frame offsets: 
#        150
#        5236
#        12334
#        20143
#        33733
#        49800
#        62352
#        70104
#        99936
#        139015
#        149792
#        179299
#        201878
#        225008
#        257312
#        280154
#        308346
#        321850
#
# Disc length: 4441 seconds
#
# Revision: 0
# Processed by: cddbd v1.5.2PL0 Copyright (c) Steve Scherf et al.
# Submitted via: ExactAudioCopy v0.95b3
#
DISCID=f3115712
DTITLE=Blind Faith  - The Morgan Rehearsals - Disc 2
DYEAR=1900
DGENRE=
TTITLE0=Well Allright (Takes 2 - 7)
TTITLE1=Well Allright (Takes 2 - 7)
TTITLE2=Well Allright (Takes 2 - 7)
TTITLE3=Well Allright (Takes 2 - 7)
TTITLE4=Well Allright (Takes 2 - 7)
TTITLE5=Well Allright (Takes 2 - 7)
TTITLE6=Hey Joe
TTITLE7=Hey Joe
TTITLE8=Instrumental Jam
TTITLE9=Well Allright (Takes 8 - 9)
TTITLE10=Well Allright (Takes 8 - 9)
TTITLE11=Instrumental Jams
TTITLE12=Instrumental Jams
TTITLE13=Instrumental Jams
TTITLE14=Instrumental Jams
TTITLE15=Instrumental Jams
TTITLE16=Instrumental Jams
TTITLE17=Instrumental Jams
EXTD=
EXTT0=
EXTT1=
EXTT2=
EXTT3=
EXTT4=
EXTT5=
EXTT6=
EXTT7=
EXTT8=
EXTT9=
EXTT10=
EXTT11=
EXTT12=
EXTT13=
EXTT14=
EXTT15=
EXTT16=
EXTT17=
PLAYORDER=
